<?xml version="1.0" ?><!DOCTYPE svg  PUBLIC '-//W3C//DTD SVG 1.1//EN'  'http://www.w3.org/Graphics/SVG/1.1/DTD/svg11.dtd'><svg height="100%" style="fill-rule:evenodd;clip-rule:evenodd;stroke-linejoin:round;stroke-miterlimit:2;" version="1.1" viewBox="0 0 129 129" width="100%" xml:space="preserve" xmlns="http://www.w3.org/2000/svg" xmlns:serif="http://www.serif.com/" xmlns:xlink="http://www.w3.org/1999/xlink"><g transform="matrix(1,0,0,1,-157,-169)"><g id="worker" transform="matrix(1,0,0,1,157.709,169.583)"><rect height="128" style="fill:none;" width="128" x="0" y="0"/><g><g transform="matrix(1.05298,0,0,0.834676,-2914.67,467.965)"><path d="M2881.3,-417.827C2881.3,-442.061 2865.73,-461.706 2846.52,-461.706C2835.12,-461.706 2822.45,-461.706 2811.05,-461.706C2791.84,-461.706 2776.27,-442.061 2776.27,-417.827L2776.27,-411.319L2881.3,-411.319L2881.3,-417.827Z" style="fill:rgb(244,49,49);"/></g><g transform="matrix(1,0,0,1,-2345.72,-2791.25)"><path d="M2465.01,2909.61L2354.43,2909.61C2354.43,2909.9 2354.43,2910.18 2354.43,2910.47L2354.43,2915.9L2465.02,2915.9L2465.02,2910.47C2465.02,2910.18 2465.02,2909.9 2465.01,2909.61Z" style="fill:rgb(183,37,37);"/></g><g transform="matrix(1,0,0,1,-2345.72,-2791.25)"><path d="M2354.53,2915.9C2355.97,2896.99 2371.77,2882.09 2391.05,2882.09L2428.4,2882.09C2447.68,2882.09 2463.48,2896.99 2464.91,2915.9L2465.02,2915.9L2465.02,2910.47C2465.02,2890.24 2448.62,2873.85 2428.4,2873.85L2391.05,2873.85C2370.82,2873.85 2354.43,2890.24 2354.43,2910.47L2354.43,2915.9L2354.53,2915.9Z" style="fill:rgb(247,101,101);"/></g><g transform="matrix(1.05298,0,0,0.932603,-2915.81,510.79)"><path d="M2837.9,-481.551L2822.56,-481.551L2822.56,-459.145C2828.03,-453.329 2833.14,-453.329 2837.9,-459.145L2837.9,-481.551Z" style="fill:rgb(185,156,84);"/></g><g transform="matrix(1,0,0,1,-2345.72,-2791.25)"><path d="M2402.02,2866.04L2402.02,2873.85C2407.78,2879.27 2413.16,2879.27 2418.18,2873.85L2418.18,2866.04C2413.16,2871.46 2407.78,2871.46 2402.02,2866.04Z" style="fill:rgb(247,208,112);"/></g><g transform="matrix(1.19368,0,0,1.32733,-3310.13,688.904)"><circle cx="2826.99" cy="-481.563" r="17.705" style="fill:rgb(247,208,112);"/></g><g transform="matrix(0.705467,0,0,0.955179,-1933.85,527.509)"><path d="M2789.86,-463.397L2789.86,-436.377C2789.86,-432.877 2788.38,-429.464 2785.62,-426.619C2783.3,-424.235 2780.91,-421.766 2780.91,-421.766L2881.34,-421.766C2881.34,-421.766 2878.94,-424.235 2876.63,-426.619C2873.87,-429.464 2872.38,-432.877 2872.38,-436.377C2872.38,-445.693 2872.38,-463.835 2872.38,-463.835C2867.04,-465.131 2861.4,-465.796 2855.67,-465.796C2855.67,-465.796 2853.36,-452.114 2852.21,-445.371C2851.86,-443.275 2849.45,-441.703 2846.59,-441.703C2839.18,-441.703 2825.39,-441.703 2818.05,-441.703C2815.25,-441.703 2812.87,-443.216 2812.45,-445.263C2811.07,-451.967 2808.23,-465.796 2808.23,-465.796C2801.9,-465.796 2795.69,-464.986 2789.86,-463.397Z" style="fill:rgb(13,121,242);"/></g><g transform="matrix(1,0,0,1,-2345.72,-2791.25)"><path d="M2394.26,2882.18L2392.99,2873.85C2388.53,2873.85 2384.14,2874.62 2380.03,2876.14L2380.03,2884.48C2384.14,2882.96 2388.53,2882.18 2392.99,2882.18L2394.26,2882.18Z" style="fill:rgb(74,155,245);"/></g><g transform="matrix(1,0,0,1,-2345.72,-2791.25)"><path d="M2429.47,2873.96L2426.46,2873.85L2425.41,2882.18L2426.46,2882.18C2430.5,2882.18 2434.48,2882.82 2438.25,2884.06L2438.25,2875.72C2435.42,2874.79 2432.47,2874.2 2429.47,2873.96Z" style="fill:rgb(74,155,245);"/></g><g transform="matrix(1,0,0,1,-2345.72,-2791.25)"><path d="M2440.21,2909.63L2378.07,2909.63C2377.76,2910.19 2377.41,2910.74 2377.04,2911.27C2375.4,2913.54 2373.71,2915.9 2373.71,2915.9L2444.57,2915.9C2444.57,2915.9 2442.88,2913.54 2441.24,2911.27C2440.87,2910.74 2440.52,2910.19 2440.21,2909.63Z" style="fill:rgb(10,91,181);"/></g><g transform="matrix(1.05298,0,0,1.05298,-2915.74,568.76)"><path d="M2830.16,-502.102C2832.13,-505.143 2835.58,-507.159 2839.5,-507.159C2845.62,-507.159 2850.6,-502.244 2850.6,-496.191C2850.6,-490.137 2845.62,-485.223 2839.5,-485.223C2837.29,-485.223 2835.23,-485.865 2833.5,-486.97C2831.47,-488.287 2828.85,-488.286 2826.82,-486.969C2825.09,-485.865 2823.03,-485.223 2820.81,-485.223C2814.69,-485.223 2809.72,-490.137 2809.72,-496.191C2809.72,-502.244 2814.69,-507.159 2820.81,-507.159C2824.74,-507.159 2828.18,-505.143 2830.16,-502.102Z" style="fill:rgb(158,158,158);"/></g><g transform="matrix(1.05298,0,0,1.05298,-2915.74,568.76)"><path d="M2830.16,-505.129C2827.8,-507.55 2824.48,-509.058 2820.81,-509.058C2813.64,-509.058 2807.82,-503.287 2807.82,-496.191C2807.82,-489.095 2813.64,-483.323 2820.81,-483.323C2823.4,-483.323 2825.82,-484.075 2827.84,-485.368C2827.85,-485.371 2827.85,-485.373 2827.86,-485.376C2829.26,-486.285 2831.06,-486.285 2832.46,-485.376C2832.47,-485.374 2832.47,-485.372 2832.47,-485.369C2834.5,-484.076 2836.91,-483.323 2839.5,-483.323C2846.68,-483.323 2852.5,-489.095 2852.5,-496.191C2852.5,-503.287 2846.68,-509.058 2839.5,-509.058C2835.84,-509.058 2832.52,-507.55 2830.16,-505.129ZM2828.57,-501.068C2828.91,-500.528 2829.51,-500.203 2830.16,-500.203C2830.8,-500.203 2831.4,-500.528 2831.75,-501.068C2833.39,-503.59 2836.25,-505.26 2839.5,-505.26C2844.57,-505.26 2848.7,-501.202 2848.7,-496.191C2848.7,-491.18 2844.57,-487.122 2839.5,-487.122C2837.67,-487.122 2835.96,-487.653 2834.52,-488.57C2831.87,-490.286 2828.45,-490.286 2825.8,-488.569C2824.36,-487.653 2822.65,-487.122 2820.81,-487.122C2815.75,-487.122 2811.62,-491.18 2811.62,-496.191C2811.62,-501.202 2815.75,-505.26 2820.81,-505.26C2824.07,-505.26 2826.93,-503.59 2828.57,-501.068Z" style="fill:rgb(51,51,51);"/></g><g transform="matrix(1.05298,0,0,1.05298,-2915.74,568.76)"><path d="M2804.16,-501.442C2803.38,-502.719 2808.72,-506.076 2808.2,-507.498C2807.27,-510.014 2806.77,-510.732 2806.77,-513.567C2806.77,-526.476 2817.25,-536.957 2830.16,-536.957C2843.07,-536.957 2853.55,-526.476 2853.55,-513.567C2853.55,-510.732 2853.04,-510.014 2852.12,-507.498C2851.59,-506.076 2856.94,-502.719 2856.16,-501.442L2804.16,-501.442Z" style="fill:rgb(244,187,49);"/></g><g transform="matrix(1,0,0,1,-2345.72,-2791.25)"><path d="M2385.92,2822.76C2385.62,2821.8 2385.47,2820.84 2385.47,2819.24C2385.47,2805.64 2396.51,2794.61 2410.1,2794.61C2423.69,2794.61 2434.73,2805.64 2434.73,2819.24C2434.73,2820.84 2434.57,2821.8 2434.28,2822.76C2432.08,2811.41 2422.09,2802.83 2410.1,2802.83C2398.11,2802.83 2388.11,2811.41 2385.92,2822.76Z" style="fill:rgb(247,204,101);"/></g><g transform="matrix(0.910236,0,0,1.05298,-2536.45,568.802)"><path d="M2844.75,-534.315C2851.37,-529.783 2855.75,-522.185 2855.75,-513.567C2855.75,-512.518 2854.76,-511.667 2853.55,-511.667C2852.34,-511.667 2851.35,-512.518 2851.35,-513.567C2851.35,-521.066 2847.56,-527.693 2841.74,-531.557C2841.44,-531.757 2841.22,-532.011 2841.1,-532.302C2842.25,-533.056 2843.47,-533.731 2844.75,-534.315Z" style="fill:rgb(183,140,37);"/></g><g transform="matrix(-0.910236,0,0,1.05298,2665.2,568.802)"><path d="M2844.75,-534.315C2843.47,-533.733 2842.24,-533.064 2841.1,-532.302C2841.22,-532.011 2841.44,-531.757 2841.74,-531.557C2847.56,-527.693 2851.35,-521.066 2851.35,-513.567C2851.35,-512.518 2852.34,-511.667 2853.55,-511.667C2854.76,-511.667 2855.75,-512.518 2855.75,-513.567C2855.75,-522.185 2851.37,-529.783 2844.75,-534.315Z" style="fill:rgb(183,140,37);"/></g><g transform="matrix(1.05298,0,0,1.05298,-2915.69,568.76)"><path d="M2807.49,-509.296L2808.23,-509.444L2818.14,-509.444C2819.19,-509.444 2820.04,-508.593 2820.04,-507.545C2820.04,-506.496 2819.19,-505.645 2818.14,-505.645L2808.23,-505.645C2807.92,-505.645 2807.63,-505.718 2807.38,-505.866C2807.95,-506.499 2808.3,-507.082 2808.15,-507.498L2807.49,-509.296Z" style="fill:rgb(183,140,37);"/></g></g></g></g></svg>